<svg viewBox="0 0 250 300" fill="none" xmlns="http://www.w3.org/2000/svg">
<rect width="250" height="300" fill="white"/>
<circle cx="125" cy="150" r="36" fill="CurrentColor"/>
<circle cx="125" cy="150" r="13" fill="black"/>
<path d="M108.579 145.6C108.436 146.134 105.293 145.755 101.559 144.754C97.8247 143.754 94.9134 142.51 95.0563 141.977C95.1993 141.443 98.3424 141.822 102.077 142.822C105.811 143.823 108.722 145.067 108.579 145.6Z" fill="black" fill-opacity="0.25"/>
<path d="M154.944 158.023C154.801 158.557 151.658 158.178 147.923 157.178C144.189 156.177 141.278 154.933 141.421 154.4C141.564 153.866 144.707 154.245 148.441 155.246C152.175 156.246 155.087 157.49 154.944 158.023Z" fill="black" fill-opacity="0.25"/>
<path d="M110.278 158.5C110.554 158.978 108.063 160.933 104.715 162.866C101.367 164.799 98.4294 165.978 98.1532 165.5C97.8771 165.022 100.367 163.067 103.715 161.134C107.063 159.201 110.001 158.022 110.278 158.5Z" fill="black" fill-opacity="0.25"/>
<path d="M151.847 134.5C152.123 134.978 149.633 136.933 146.285 138.866C142.937 140.799 139.999 141.978 139.722 141.5C139.446 141.022 141.937 139.067 145.285 137.134C148.633 135.201 151.571 134.022 151.847 134.5Z" fill="black" fill-opacity="0.25"/>
<path d="M116.5 135.278C116.022 135.554 114.067 133.063 112.134 129.715C110.201 126.367 109.022 123.429 109.5 123.153C109.978 122.877 111.933 125.367 113.866 128.715C115.799 132.063 116.978 135.001 116.5 135.278Z" fill="black" fill-opacity="0.25"/>
<path d="M140.5 176.847C140.022 177.123 138.067 174.633 136.134 171.285C134.201 167.937 133.022 164.999 133.5 164.722C133.978 164.446 135.933 166.937 137.866 170.285C139.799 173.633 140.978 176.571 140.5 176.847Z" fill="black" fill-opacity="0.25"/>
<path d="M120.6 166.421C121.134 166.564 120.755 169.707 119.754 173.441C118.754 177.175 117.51 180.087 116.977 179.944C116.443 179.801 116.822 176.658 117.822 172.923C118.823 169.189 120.067 166.278 120.6 166.421Z" fill="black" fill-opacity="0.25"/>
<path d="M133.023 120.056C133.557 120.199 133.178 123.342 132.178 127.077C131.177 130.811 129.933 133.722 129.4 133.579C128.866 133.436 129.245 130.293 130.246 126.559C131.246 122.825 132.49 119.913 133.023 120.056Z" fill="black" fill-opacity="0.25"/>
</svg>
