<svg width="125px" viewBox="0 0 250 300" fill="none" xmlns="http://www.w3.org/2000/svg">
<rect width="250" height="300" fill="white"/>
<circle class="iris" cx="125" cy="150" r="34" fill="#A619D7"/>
<circle class="iris" cx="125" cy="150" r="10" fill="black"/>
<path class="iris" d="M130.21 129.737C130.21 133.196 127.647 136 124.486 136C121.325 136 119.093 133.177 118.762 129.737C117.944 121.238 126.53 113.857 134.708 123.698C123.259 120.567 130.21 125.264 130.21 129.737Z" fill="black"/>
<path class="iris" d="M105.194 156.414C107.445 154.162 111.096 154.162 113.348 156.414C115.6 158.666 115.351 162.093 113.348 164.568C108.397 170.684 97.4763 169.374 98.0588 157.142C104.174 167.335 102.281 159.326 105.194 156.414Z" fill="black"/>
<path class="iris" d="M140.868 163.7C137.792 162.876 135.966 159.715 136.79 156.639C137.615 153.563 140.707 152.064 143.852 152.562C151.624 153.791 155.949 163.904 145.066 169.515C150.835 159.123 144.846 164.766 140.868 163.7Z" fill="black"/>
</svg>
